<svg width="180" height="180" viewBox="0 0 180 180" fill="none" xmlns="http://www.w3.org/2000/svg">
<g id="logo-border">
<path id="bg" fill-rule="evenodd" clip-rule="evenodd" d="M90 180C139.706 180 180 139.706 180 90C180 40.2944 139.706 0 90 0C40.2944 0 0 40.2944 0 90C0 139.706 40.2944 180 90 180Z" fill="white"/>
<g id="logo">
<path id="Subtract" fill-rule="evenodd" clip-rule="evenodd" d="M165 90C165 131.421 131.421 165 90 165C48.5786 165 15 131.421 15 90C15 48.5786 48.5786 15 90 15C131.421 15 165 48.5786 165 90ZM57.68 78.7406C56.5151 82.2352 55.9722 86.1692 55.9722 90H65.6945C65.6945 87.0253 66.1238 84.1537 66.9033 81.815L57.68 78.7406ZM78.7406 57.68C82.2352 56.5151 86.1692 55.9722 90 55.9722C108.726 55.9722 124.028 71.2736 124.028 90H114.306C114.306 76.643 103.357 65.6944 90 65.6944C87.0253 65.6944 84.1537 66.1237 81.815 66.9033L78.7406 57.68ZM69.1318 62.2572L65.6944 58.8198L58.8198 65.6945L62.2571 69.1318L76.8379 83.7126C75.9268 85.6164 75.4167 87.7486 75.4167 90C75.4167 98.0542 81.9458 104.583 90 104.583C98.0541 104.583 104.583 98.0542 104.583 90C104.583 81.9459 98.0541 75.4167 90 75.4167C87.7486 75.4167 85.6163 75.9269 83.7126 76.838L69.1318 62.2572ZM85.1389 90C85.1389 89.0094 85.4352 88.0879 85.9441 87.3195L87.3194 85.9442C88.0878 85.4353 89.0093 85.1389 90 85.1389C92.6847 85.1389 94.8611 87.3153 94.8611 90C94.8611 92.6848 92.6847 94.8612 90 94.8612C87.3153 94.8612 85.1389 92.6848 85.1389 90ZM41.3889 90C41.3889 63.1529 63.1528 41.3889 90 41.3889C116.847 41.3889 138.611 63.1529 138.611 90C138.611 116.847 116.847 138.611 90 138.611C63.1528 138.611 41.3889 116.847 41.3889 90ZM90 31.6667C57.7834 31.6667 31.6667 57.7834 31.6667 90C31.6667 122.217 57.7834 148.333 90 148.333C122.217 148.333 148.333 122.217 148.333 90C148.333 57.7834 122.217 31.6667 90 31.6667Z" fill="#1E134B"/>
</g>
</g>
</svg>
